<?xml version="1.0" encoding="utf-8"?>
<!-- Generator: Adobe Illustrator 22.0.0, SVG Export Plug-In . SVG Version: 6.00 Build 0)  -->
<svg version="1.1" id="Layer_1" xmlns="http://www.w3.org/2000/svg" xmlns:xlink="http://www.w3.org/1999/xlink" x="0px" y="0px"
	 viewBox="0 0 841.9 595.3" style="enable-background:new 0 0 841.9 595.3;" xml:space="preserve">
<style type="text/css">
	.st0{fill:#FFFFFF;}
</style>
<g>
	<path class="st0" d="M457.4,390.4c0,0,54.8,27.6,116.5-6.5c0,0-16.3-17.6-29.2-24.7c0,0-7.8-5.4-19.9-2.8
		C524.9,356.4,487.7,362.8,457.4,390.4z"/>
	<path class="st0" d="M467.8,332.3c0,0,61-20.5,90.3-73.2c0,0,23.1-34.9,20.7-96.1C578.9,163,476.2,204.1,467.8,332.3z"/>
	<path class="st0" d="M447.3,427.7c0,0,27-8.2,57.2,11.2c0,0,18.5,10.4,28.7,36c0,0-41,8.7-67.7-19.8
		C465.5,455.2,450.9,440.1,447.3,427.7z"/>
	<path class="st0" d="M362.2,390.8c0,0-54.8,27.6-116.5-6.5c0,0,16.3-17.6,29.2-24.7c0,0,7.8-5.4,19.9-2.8
		C294.8,356.8,331.9,363.1,362.2,390.8z"/>
	<path class="st0" d="M351.8,332.7c0,0-61-20.5-90.3-73.2c0,0-23.1-34.9-20.7-96.1C240.7,163.4,343.4,204.5,351.8,332.7z"/>
	<path class="st0" d="M372.3,428.1c0,0-27-8.2-57.2,11.2c0,0-18.5,10.4-28.7,36c0,0,41,8.7,67.7-19.8
		C354.1,455.5,368.7,440.5,372.3,428.1z"/>
	<path class="st0" d="M362.5,187.2c0,0,10.5-70.7,42.6-128c0,0,3.3,3.8,9.5,16c0,0,3.3-5.6,6.3-10c0,0,30.9,55.9,37.9,137.6
		c0,0,6.7,46.1-13.3,98.1c0,0-11.8,29.8-14.8,54.5c0,0-8.7,49.8-2.8,81.2c0,0,4.8,33.9,23.7,74.7c0,0-32.6-20.4-48.8-45.1
		c0,0-15,15.4-31.9,25.6c0,0,11.2-24,15.2-49.2s3.8-59.4,3.8-59.4s1.9-43-16.3-87.3C373.4,296.1,354.1,239.4,362.5,187.2z"/>
</g>
</svg>
